<?xml version="1.0" encoding="utf-8"?>
<!-- Generator: Adobe Illustrator 24.0.2, SVG Export Plug-In . SVG Version: 6.00 Build 0)  -->
<svg version="1.1" id="Layer_1" xmlns="http://www.w3.org/2000/svg" xmlns:xlink="http://www.w3.org/1999/xlink" x="0px" y="0px"
	 viewBox="0 0 100 100" style="enable-background:new 0 0 100 100;" xml:space="preserve">
<style type="text/css">
	.st0{fill-rule:evenodd;clip-rule:evenodd;fill:#303030;}
</style>
<g>
	<path class="st0" d="M29.3,50.1c0-10,8-18.2,17.9-18.2S65,40,65,50.1c0,10-8,18.2-17.8,18.2C37.3,68.2,29.3,60.1,29.3,50.1
		L29.3,50.1z M6.4,68.8V31.2h22.5l0.7,10.3H17v4.9h10.3v10.1H17v12.2H6.4V68.8z M93.6,68.7L82.3,49.3l10.3-17.9H81.2l-4.6,8l-4.7-8
		H60.4l10.4,18L59.7,68.7h11.4l5.4-9.3l5.4,9.3H93.6L93.6,68.7z M50.3,57.5V42.6c0-1.8-1.3-3.3-3.1-3.3c-1.6,0-3,1.5-3,3.3v14.9
		c0,1.7,1.4,3,3,3C49,60.5,50.3,59.3,50.3,57.5L50.3,57.5z"/>
</g>
</svg>
