<?xml version="1.0" encoding="utf-8"?>
<!-- Generator: Adobe Illustrator 24.0.2, SVG Export Plug-In . SVG Version: 6.00 Build 0)  -->
<svg version="1.1" id="Layer_1" xmlns="http://www.w3.org/2000/svg" xmlns:xlink="http://www.w3.org/1999/xlink" x="0px" y="0px"
	 viewBox="0 0 100 100" style="enable-background:new 0 0 100 100;" xml:space="preserve">
<style type="text/css">
	.st0{fill:#284DA0;}
</style>
<title>The Weather Channel</title>
<g>
	<path class="st0" d="M64.5,64.6c-0.6,0-1,0.5-1,1.4v0h1.9v-0.1c0-0.5,0-0.7-0.2-1C65.1,64.7,64.8,64.6,64.5,64.6z"/>
	<path class="st0" d="M64.6,52.8c-0.7,0-1,0.5-1,1.4v0h1.9v-0.1c0-0.5,0-0.7-0.2-1C65.1,53,64.9,52.8,64.6,52.8z"/>
	<path class="st0" d="M46.6,56.3c0,0.5,0.3,0.9,0.7,0.9c0.3,0,0.6-0.2,0.9-0.4l0-1.4h-0.1C47,55.4,46.6,55.6,46.6,56.3z"/>
	<path class="st0" d="M42.3,54.2c0-0.5-0.1-0.7-0.2-1c-0.2-0.2-0.4-0.4-0.7-0.4c-0.6,0-1,0.5-1,1.4v0L42.3,54.2
		C42.3,54.2,42.3,54.2,42.3,54.2z"/>
	<path class="st0" d="M44,68.1c0,0.5,0.3,0.8,0.7,0.8c0.3,0,0.6-0.2,0.9-0.4l0-1.4h-0.1C44.4,67.1,44,67.3,44,68.1z"/>
	<path class="st0" d="M25,25v50h50V25H25z M42.6,40.9c0.5-0.6,1.2-0.9,2-0.9c0.7,0,1.4,0.2,1.9,0.7c0.6,0.6,0.8,1.5,0.8,2.8
		c0,0.1,0,0.3,0,0.4h-3.7V44c0,1,0.5,1.5,1.4,1.5c0.6,0,1.1-0.2,1.6-0.6l0.7,1c-0.8,0.6-1.5,0.9-2.4,0.9c-1.9,0-3.1-1.3-3.1-3.3
		C41.8,42.3,42.1,41.6,42.6,40.9z M37,37.3c0.1,0.4,0.1,1,0.1,1.6v1.3c0,0.2,0,0.5,0,0.6c0.4-0.4,1.2-0.7,1.8-0.7
		c0.8,0,1.5,0.4,1.7,0.9c0.1,0.4,0.2,0.6,0.2,1.2v4.5h-1.6v-4.3c0-0.6-0.2-0.9-0.7-0.9c-0.4,0-0.9,0.2-1.3,0.6v4.6h-1.7v-7.4
		c0-0.6-0.1-1.2-0.1-1.5L37,37.3z M28.2,37.9h6.3l-0.3,1.5h-2.1v7.3h-1.8v-7.3h-2.1V37.9z M30,49.4l0.8,3.4c0.3,1.6,0.5,2.9,0.5,2.9
		c0-0.3,0.2-1.6,0.4-2.8l0.8-3.5h1.9l0.8,3.9c0.2,0.8,0.4,2.3,0.4,2.3c0-0.3,0.3-2.1,0.5-2.9l0.7-3.3h1.9l-2.1,8.8h-1.9l-0.8-3.6
		c-0.2-1.2-0.4-2.3-0.4-2.5c0,0-0.2,1.2-0.4,2.5l-0.7,3.6h-2l-2.1-8.8H30z M32.4,70.1c-1.2,0-2.1-0.4-2.8-1.2
		c-0.7-0.8-1.1-1.8-1.1-3.1c0-1.1,0.2-2,0.6-2.7c0.7-1.3,1.9-2,3.3-2c0.9,0,1.7,0.3,2.2,0.7l-0.8,1.2c-0.4-0.3-0.9-0.5-1.4-0.5
		c-0.6,0-1.2,0.3-1.5,0.7c-0.3,0.5-0.5,1.2-0.5,2.3c0,1.2,0.1,1.9,0.4,2.3c0.3,0.6,0.9,1,1.7,1c0.5,0,1-0.1,1.5-0.6l0.8,1.1
		C34.1,69.8,33.4,70.1,32.4,70.1z M41.1,69.9h-1.6v-4.3c0-0.6-0.2-0.9-0.7-0.9c-0.4,0-0.9,0.3-1.3,0.6v4.6h-1.7v-7.4
		c0-0.6-0.1-1.2-0.1-1.5l1.7-0.4c0.1,0.4,0.1,1,0.1,1.6v1.3c0,0.2,0,0.5,0,0.6c0.4-0.4,1.2-0.7,1.8-0.7c0.8,0,1.5,0.4,1.7,0.9
		c0.1,0.4,0.2,0.6,0.2,1.2L41.1,69.9L41.1,69.9z M38.5,55c0-1.1,0.2-1.9,0.8-2.5c0.5-0.6,1.2-0.9,2-0.9c0.8,0,1.4,0.3,1.9,0.7
		c0.6,0.6,0.8,1.5,0.8,2.8c0,0.1,0,0.3,0,0.4h-3.7v0.1c0,1,0.5,1.6,1.4,1.6c0.6,0,1.1-0.2,1.6-0.7l0.7,1c-0.8,0.6-1.5,0.9-2.4,0.9
		C39.7,58.3,38.5,57,38.5,55z M47,70.2c-0.4-0.2-0.7-0.4-0.9-0.8c-0.1,0.1-0.3,0.2-0.4,0.3c-0.3,0.2-0.8,0.4-1.3,0.4
		c-1.4,0-2.2-0.7-2.2-2c0-1.5,1-2.2,3.1-2.2c0.1,0,0.2,0,0.4,0v-0.2c0-0.7-0.2-1-0.8-1c-0.5,0-1.2,0.3-1.9,0.7l-0.7-1.2
		c0.3-0.2,0.6-0.4,1-0.5c0.6-0.3,1.2-0.4,1.8-0.4c1.1,0,1.8,0.4,2.1,1.1c0.1,0.3,0.1,0.5,0.1,1.2l-0.1,2.2c0,0,0,0.1,0,0.1
		c0,0.7,0.1,0.9,0.6,1.3L47,70.2z M48.3,58.1c-0.3,0.2-0.8,0.3-1.3,0.3c-1.4,0-2.2-0.7-2.2-2c0-1.5,1-2.2,3.1-2.2c0.1,0,0.2,0,0.4,0
		v-0.3c0-0.7-0.2-0.9-0.8-0.9c-0.5,0-1.2,0.2-1.9,0.7l-0.7-1.2c0.3-0.2,0.6-0.3,1-0.5c0.6-0.2,1.2-0.4,1.8-0.4
		c1.1,0,1.8,0.4,2.1,1.1c0.1,0.3,0.1,0.5,0.1,1.2l0,2.1c0,0.1,0,0.1,0,0.1c0,0.7,0.1,1,0.6,1.3l-0.9,1c-0.4-0.2-0.7-0.5-0.9-0.8
		C48.6,57.8,48.4,58,48.3,58.1z M53.9,69.9h-1.7v-4.2c0-0.7-0.1-0.9-0.5-0.9c-0.3,0-0.8,0.2-1.2,0.6v4.5h-1.7v-4.7
		c0-0.6-0.1-1.1-0.2-1.5l1.5-0.4c0.2,0.3,0.3,0.6,0.3,0.8c0.2-0.2,0.5-0.3,0.7-0.5c0.3-0.2,0.8-0.3,1.2-0.3c0.7,0,1.4,0.4,1.5,0.9
		c0.1,0.2,0.1,0.5,0.1,0.9L53.9,69.9L53.9,69.9z M53.3,58.3c-0.8,0-1.5-0.4-1.7-0.9c-0.1-0.3-0.1-0.4-0.1-1v-3.5h-0.7v-1.1h0.7
		c0-0.6,0-1,0.1-1.5l1.7-0.4c-0.1,0.6-0.1,1.3-0.1,2h1.5l-0.4,1.1h-1.1v3.2c0,0.8,0.1,1,0.7,1c0.2,0,0.3-0.1,0.6-0.1l0.2,1
		C54.2,58.2,53.7,58.3,53.3,58.3z M60.5,69.9h-1.7v-4.2c0-0.7-0.1-0.9-0.6-0.9c-0.3,0-0.8,0.2-1.2,0.6v4.5h-1.7v-4.7
		c0-0.6-0.1-1.1-0.2-1.5l1.5-0.4c0.1,0.3,0.2,0.6,0.2,0.8c0.2-0.2,0.5-0.3,0.8-0.5c0.3-0.2,0.8-0.3,1.1-0.3c0.7,0,1.4,0.4,1.5,0.9
		c0.1,0.2,0.2,0.5,0.2,0.9L60.5,69.9L60.5,69.9z M60.8,58.2h-1.6v-4.3c0-0.6-0.2-0.9-0.7-0.9c-0.4,0-0.9,0.2-1.3,0.6v4.6h-1.7v-7.4
		c0-0.6-0.1-1.2-0.1-1.5l1.7-0.4c0.1,0.4,0.1,1,0.1,1.6v1.3c0,0.2,0,0.5,0,0.5c0.4-0.4,1.2-0.7,1.8-0.7c0.8,0,1.5,0.4,1.7,0.9
		c0.1,0.4,0.2,0.6,0.2,1.2C60.8,53.7,60.8,58.2,60.8,58.2z M67.2,67.2h-3.7v0c0,1,0.5,1.6,1.4,1.6c0.6,0,1.1-0.2,1.6-0.6l0.7,1
		c-0.7,0.6-1.5,0.9-2.4,0.9c-1.8,0-3-1.3-3-3.3c0-1.2,0.2-1.9,0.8-2.6c0.5-0.6,1.2-0.9,2-0.9c0.8,0,1.4,0.2,1.9,0.7
		c0.6,0.6,0.9,1.5,0.9,2.8C67.2,67,67.2,67.1,67.2,67.2z M67.2,55.5h-3.7v0.1c0,1,0.5,1.6,1.4,1.6c0.6,0,1.1-0.2,1.6-0.7l0.6,1
		c-0.7,0.6-1.5,0.9-2.4,0.9c-1.8,0-3-1.3-3-3.3c0-1.1,0.2-1.9,0.8-2.5c0.5-0.6,1.2-0.9,2-0.9c0.7,0,1.4,0.3,1.9,0.7
		c0.6,0.6,0.8,1.5,0.8,2.8C67.2,55.2,67.2,55.4,67.2,55.5z M70,70.1c-0.7,0-1.3-0.4-1.5-0.9c-0.1-0.3-0.2-0.6-0.2-1.5v-4.8
		c0-0.8,0-1.4-0.1-1.9l1.7-0.4c0.1,0.4,0.1,0.8,0.1,1.7v5c0,1.1,0,1.3,0.1,1.4c0.1,0.1,0.2,0.2,0.3,0.2c0.1,0,0.1,0,0.2,0l0.3,1
		C70.7,70,70.4,70.1,70,70.1z M71.6,53.2c-0.2-0.1-0.3-0.1-0.5-0.1c-0.4,0-0.7,0.2-1,0.6v4.5h-1.7v-4.3c0-0.9-0.1-1.5-0.2-1.9
		l1.5-0.4c0.2,0.3,0.2,0.6,0.3,0.9c0.2-0.3,0.6-0.7,0.9-0.8c0.1-0.1,0.4-0.1,0.6-0.1c0.2,0,0.3,0,0.6,0.1L71.6,53.2z"/>
	<path class="st0" d="M45.6,42.6c0-0.5,0-0.7-0.2-1c-0.2-0.3-0.4-0.4-0.7-0.4c-0.7,0-1,0.5-1,1.4v0L45.6,42.6L45.6,42.6z"/>
</g>
</svg>
